<svg width="104" height="104" viewBox="0 0 104 104" fill="none" xmlns="http://www.w3.org/2000/svg">
<circle cx="52" cy="52" r="52" fill="#800080"/>
<path d="M54.9267 17C49.604 17 45.2938 20.6914 45.2938 25.25C45.2938 29.8086 49.604 33.5 54.9267 33.5C60.2494 33.5 64.5596 29.8086 64.5596 25.25C64.5596 20.6914 60.2494 17 54.9267 17ZM47.5925 36.5C44.7875 36.5 42.133 38 41.0794 40.25L29.6403 62.6094C27.5399 66.5117 30.8581 71 35.9345 71H52.7921L44.9106 85.8594C43.3371 88.707 45.7658 92 49.6176 92C51.547 92 53.4626 90.9688 54.1604 89.4688L65.5448 68.4688C67.1183 65.4688 64.6896 62 60.8378 62H48.7419L59.1411 42.5H86.2884C88.0398 42.5 89.6066 41.4688 89.9555 39.9688C90.3044 38.1699 88.553 36.5 86.4526 36.5H47.5925Z" fill="white"/>
</svg>
